<svg xmlns="http://www.w3.org/2000/svg" viewBox="0 0 512 512" role="img" aria-label="Rubik cube icon">
  <defs>
    <style>
      .s{stroke:#002238;stroke-width:18;stroke-linecap:round;stroke-linejoin:round}
    </style>
  </defs>
  <polygon class="s" fill="#46a8f0" points="70,160 256,50 442,160 256,270"/>
  <polygon class="s" fill="#ff512f" points="70,160 70,370 256,480 256,270"/>
  <polygon class="s" fill="#f6d633" points="256,270 256,480 442,370 442,160"/>

  <line class="s" x1="132" y1="196" x2="318" y2="307"/>
  <line class="s" x1="194" y1="160" x2="380" y2="270"/>

  <line class="s" x1="132" y1="280" x2="256" y2="354"/>
  <line class="s" x1="132" y1="238" x2="256" y2="312"/>
  <line class="s" x1="194" y1="318" x2="194" y2="442"/>
  <line class="s" x1="132" y1="281" x2="132" y2="405"/>

  <line class="s" x1="318" y1="307" x2="318" y2="431"/>
  <line class="s" x1="380" y1="270" x2="380" y2="394"/>
  <line class="s" x1="256" y1="354" x2="442" y2="244"/>
  <line class="s" x1="256" y1="396" x2="442" y2="286"/>

  <line class="s" x1="132" y1="160" x2="256" y2="233"/>
  <line class="s" x1="256" y1="233" x2="380" y2="160"/>
  <line class="s" x1="194" y1="123" x2="318" y2="196"/>
</svg>
